# xmcd CD database file
#
# Track frame offsets:
#	150
#	21482
#	44087
#	59967
#	83775
#	109565
#	129852
#	155305
#	175527
#	191175
#	213432
#	231965
#
# Disc length: 3391 seconds
#
# Revision: 5
# Processed by: cddbd v1.5PL3 Copyright (c) Steve Scherf et al.
# Submitted via: CDex 1.50Beta3
#
DISCID=a70d3d0c
DTITLE=mawari - ひまわり
DYEAR=2000
DGENRE=Japanese Rock
TTITLE0=いちごみるく
TTITLE1=Easy Life
TTITLE2=ごりごり
TTITLE3=「みんないるよ」
TTITLE4=約束 -ずっとこのまま-
TTITLE5=かのん
TTITLE6=購買めろんぱん
TTITLE7=ゆらゆら -album version-
TTITLE8=待っててね
TTITLE9=幸せの青い風
TTITLE10=こころの花
TTITLE11=鏡の中の私
EXTD=YEAR: 2000
EXTT0=
EXTT1=
EXTT2=
EXTT3=
EXTT4=
EXTT5=
EXTT6=
EXTT7=
EXTT8=
EXTT9=
EXTT10=
EXTT11=
PLAYORDER=
